# File created by Blade
# Date/Time:  Mon Sep 22 15:50:36 2014
# Frame Rate: 120.000 fps
#------------------------------------------------------
:FULLY-SPECIFIED
:DEGREES
1304
root 2.227788 37.001054 3.226579 -1.131331 -9.862519 1.687554
RightUpLeg 8.266197 -0.574215 -3.997655
RightLeg -5.030672 -0.000000 0.000000
RightFoot -11.902075 -13.679341 15.067183
RightToeBase 14.765911 -0.000000 -0.000000
LeftUpLeg 9.466155 7.265202 1.241090
LeftLeg -3.402922 -0.000000 0.000000
LeftFoot -11.067305 15.238068 -18.154612
LeftToeBase 9.515137 -0.000000 -0.000000
Spine -2.353362 -14.107250 -2.335862
RightShoulder 11.388436 -23.735497 -13.671758
RightArm 30.475668 -38.315095 58.530761
RightForeArm 14.117446 0.000000 29.850457
RightHand 1.998037 -0.000000 2.272207
RightHandThumb1 -24.326973 -0.000000 -32.862282
LeftShoulder -6.564843 21.508713 10.785039
LeftArm 96.274968 -20.368530 -107.823686
LeftForeArm -62.659518 -0.000000 141.013216
LeftHand -1.509997 0.000000 -33.906966
LeftHandThumb1 -26.253704 0.000000 33.147579
Head 0.074685 28.643590 4.926436
1305
root 2.222772 37.004235 3.226396 -1.206815 -9.834509 1.646983
RightUpLeg 8.310248 -0.491442 -3.941542
RightLeg -4.936759 -0.000000 0.000000
RightFoot -11.944458 -13.753176 15.103819
RightToeBase 14.747566 -0.000000 -0.000000
LeftUpLeg 9.513599 7.281226 1.300833
LeftLeg -3.338898 -0.000000 0.000000
LeftFoot -11.081595 15.207512 -18.136663
LeftToeBase 9.493466 -0.000000 -0.000000
Spine -2.252138 -14.211808 -2.315892
RightShoulder 11.486853 -23.661439 -13.657198
RightArm 30.865911 -38.842123 57.696744
RightForeArm 13.973742 -0.000000 29.961793
RightHand 1.882820 0.000000 2.769010
RightHandThumb1 -24.326973 -0.000000 -32.862282
LeftShoulder -6.344104 21.475788 10.951290
LeftArm 96.204884 -20.805527 -107.978753
LeftForeArm -63.144226 -0.000000 141.009316
LeftHand -1.463006 -0.000000 -34.035580
LeftHandThumb1 -26.253704 0.000000 33.147579
Head 0.169627 28.811284 4.764274
1306
root 2.219886 37.005905 3.224544 -1.275003 -9.811714 1.616372
RightUpLeg 8.352748 -0.448961 -3.901777
RightLeg -4.873798 -0.000000 0.000000
RightFoot -11.967320 -13.800931 15.146405
RightToeBase 14.724703 -0.000000 -0.000000
LeftUpLeg 9.563686 7.282711 1.341439
LeftLeg -3.306094 -0.000000 0.000000
LeftFoot -11.080763 15.217607 -18.095732
LeftToeBase 9.469857 -0.000000 -0.000000
Spine -2.154837 -14.319679 -2.299967
RightShoulder 11.548043 -23.640153 -13.625834
RightArm 31.257015 -39.224396 56.911780
RightForeArm 13.702524 0.000000 30.103402
RightHand 1.849736 -0.000000 3.202978
RightHandThumb1 -24.326973 -0.000000 -32.862282
LeftShoulder -6.098484 21.501339 11.145040
LeftArm 96.234827 -21.299500 -108.129815
LeftForeArm -64.025989 -0.000000 141.027913
LeftHand -1.514761 -0.000000 -33.737298
LeftHandThumb1 -26.253704 0.000000 33.147579
Head 0.239574 28.961282 4.597274
1307
root 2.218698 37.007103 3.221383 -1.343831 -9.800376 1.578539
RightUpLeg 8.400551 -0.397993 -3.859133
RightLeg -4.822910 -0.000000 0.000000
RightFoot -11.981702 -13.827055 15.174091
RightToeBase 14.768004 -0.000000 -0.000000
LeftUpLeg 9.626029 7.266817 1.388498
LeftLeg -3.291538 -0.000000 0.000000
LeftFoot -11.101054 15.219482 -18.098892
LeftToeBase 9.480048 -0.000000 -0.000000
Spine -2.050404 -14.420554 -2.268219
RightShoulder 11.569678 -23.623278 -13.571758
RightArm 31.661417 -39.599580 56.076809
RightForeArm 13.500468 0.000000 30.295999
RightHand 1.847229 -0.000000 3.549625
RightHandThumb1 -24.326973 -0.000000 -32.862282
LeftShoulder -5.863713 21.610895 11.344952
LeftArm 96.355692 -21.778959 -108.290155
LeftForeArm -64.885150 -0.000000 140.972954
LeftHand -1.479261 -0.000000 -33.489495
LeftHandThumb1 -26.253704 0.000000 33.147579
Head 0.312505 29.114284 4.431448
1308
root 2.216888 37.007326 3.220559 -1.413088 -9.790833 1.550356
RightUpLeg 8.460562 -0.359537 -3.827970
RightLeg -4.788167 -0.000000 0.000000
RightFoot -12.008588 -13.840313 15.230502
RightToeBase 14.781084 -0.000000 -0.000000
LeftUpLeg 9.700529 7.283211 1.430175
LeftLeg -3.290573 -0.000000 0.000000
LeftFoot -11.057167 15.194912 -17.999792
LeftToeBase 9.369612 -0.000000 -0.000000
Spine -1.956145 -14.526551 -2.244662
RightShoulder 11.573798 -23.606970 -13.520018
RightArm 31.996186 -39.861912 55.369068
RightForeArm 13.284700 0.000000 30.487540
RightHand 2.010063 0.000000 3.585616
RightHandThumb1 -24.326973 -0.000000 -32.862282
LeftShoulder -5.620135 21.777270 11.567403
LeftArm 96.538468 -22.291841 -108.454833
LeftForeArm -65.743687 -0.000000 140.825401
LeftHand -1.269126 0.000000 -33.306287
LeftHandThumb1 -26.253704 0.000000 33.147579
Head 0.393573 29.307181 4.268213
1309
root 2.216908 37.007483 3.217001 -1.464927 -9.780935 1.544407
RightUpLeg 8.505777 -0.351131 -3.820768
RightLeg -4.783833 -0.000000 0.000000
RightFoot -12.007339 -13.859357 15.220873
RightToeBase 14.738914 -0.000000 -0.000000
LeftUpLeg 9.747098 7.303039 1.446928
LeftLeg -3.294377 -0.000000 0.000000
LeftFoot -11.080753 15.179577 -18.033323
LeftToeBase 9.471805 -0.000000 -0.000000
Spine -1.883557 -14.643260 -2.243143
RightShoulder 11.557527 -23.586476 -13.454790
RightArm 32.266400 -40.059723 54.751379
RightForeArm 12.974438 -0.000000 30.699745
RightHand 2.053887 -0.000000 3.876364
RightHandThumb1 -24.326973 -0.000000 -32.862282
LeftShoulder -5.412768 21.884314 11.815098
LeftArm 96.661882 -22.767090 -108.654344
LeftForeArm -66.562706 -0.000000 140.522943
LeftHand -1.118621 0.000000 -33.057153
LeftHandThumb1 -26.253704 0.000000 33.147579
Head 0.476234 29.455822 4.071276
1310
root 2.216470 37.006579 3.215693 -1.524659 -9.774821 1.535963
RightUpLeg 8.568290 -0.383806 -3.818287
RightLeg -4.786545 -0.000000 0.000000
RightFoot -11.988619 -13.816856 15.204343
RightToeBase 14.736163 -0.000000 -0.000000
LeftUpLeg 9.818529 7.321003 1.468726
LeftLeg -3.319072 -0.000000 0.000000
LeftFoot -11.070096 15.154446 -18.030695
LeftToeBase 9.497859 -0.000000 -0.000000
Spine -1.795395 -14.767809 -2.235028
RightShoulder 11.544094 -23.526971 -13.414555
RightArm 32.383610 -40.122607 54.368465
RightForeArm 12.610524 0.000000 30.913553
RightHand 2.140572 -0.000000 4.109188
RightHandThumb1 -24.326973 -0.000000 -32.862282
LeftShoulder -5.222764 21.816490 12.111749
LeftArm 96.594047 -23.318893 -108.872213
LeftForeArm -67.223494 -0.000000 140.092613
LeftHand -0.934402 -0.000000 -32.776650
LeftHandThumb1 -26.253704 0.000000 33.147579
Head 0.522251 29.629861 3.887288
1311
root 2.217141 37.005409 3.213411 -1.569823 -9.764824 1.534498
RightUpLeg 8.614188 -0.400559 -3.820174
RightLeg -4.792152 -0.000000 0.000000
RightFoot -11.996825 -13.800048 15.218677
RightToeBase 14.753186 -0.000000 -0.000000
LeftUpLeg 9.872852 7.354934 1.482971
LeftLeg -3.342678 -0.000000 0.000000
LeftFoot -11.052632 15.104288 -18.039075
LeftToeBase 9.501157 -0.000000 -0.000000
Spine -1.729379 -14.884497 -2.225496
RightShoulder 11.498776 -23.512296 -13.375147
RightArm 32.509129 -40.175690 53.977560
RightForeArm 12.313343 -0.000000 31.165908
RightHand 2.281888 -0.000000 4.083063
RightHandThumb1 -24.326973 -0.000000 -32.862282
LeftShoulder -5.040360 21.576646 12.397120
LeftArm 96.386440 -23.886848 -109.098608
LeftForeArm -67.635593 -0.000000 139.430326
LeftHand -1.057319 -0.000000 -32.256459
LeftHandThumb1 -26.253704 0.000000 33.147579
Head 0.582372 29.818369 3.683947
1312
root 2.216625 37.004276 3.212763 -1.614455 -9.754916 1.527524
RightUpLeg 8.662223 -0.422496 -3.814155
RightLeg -4.794876 -0.000000 0.000000
RightFoot -11.996296 -13.793531 15.226042
RightToeBase 14.760534 -0.000000 -0.000000
LeftUpLeg 9.938159 7.375731 1.503266
LeftLeg -3.382159 -0.000000 0.000000
LeftFoot -11.022558 15.068219 -18.005074
LeftToeBase 9.495992 -0.000000 -0.000000
Spine -1.673902 -15.042401 -2.196040
RightShoulder 11.471626 -23.531969 -13.389752
RightArm 32.615846 -40.080138 53.724896
RightForeArm 11.969065 -0.000000 31.382880
RightHand 2.358793 -0.000000 3.875117
RightHandThumb1 -24.326973 -0.000000 -32.862282
LeftShoulder -4.961144 21.496163 12.573457
LeftArm 96.403587 -24.355781 -109.356813
LeftForeArm -67.771239 -0.000000 138.570502
LeftHand -0.765637 0.000000 -31.563762
LeftHandThumb1 -26.253704 0.000000 33.147579
Head 0.671778 30.115040 3.525150
1313
root 2.215869 37.004267 3.211702 -1.654598 -9.750343 1.521377
RightUpLeg 8.708514 -0.436123 -3.807977
RightLeg -4.807969 -0.000000 0.000000
RightFoot -11.981144 -13.786837 15.210639
RightToeBase 14.761018 -0.000000 -0.000000
LeftUpLeg 9.997240 7.387453 1.521971
LeftLeg -3.420543 -0.000000 0.000000
LeftFoot -10.998136 15.041827 -18.020913
LeftToeBase 9.515430 -0.000000 -0.000000
Spine -1.644541 -15.197341 -2.164901
RightShoulder 11.496494 -23.549150 -13.416378
RightArm 32.581558 -39.866535 53.639907
RightForeArm 11.991044 -0.000000 31.592317
RightHand 2.425697 0.000000 4.021604
RightHandThumb1 -24.326973 -0.000000 -32.862282
LeftShoulder -4.887842 21.494971 12.680716
LeftArm 96.563047 -24.808583 -109.643591
LeftForeArm -67.649061 -0.000000 137.470287
LeftHand -0.665593 -0.000000 -31.047100
LeftHandThumb1 -26.253704 0.000000 33.147579
Head 0.827240 30.325742 3.342933
1314
root 2.214471 37.004781 3.210107 -1.692713 -9.757601 1.518474
RightUpLeg 8.747372 -0.450823 -3.803675
RightLeg -4.813830 -0.000000 0.000000
RightFoot -11.973094 -13.768978 15.220160
RightToeBase 14.738311 -0.000000 -0.000000
LeftUpLeg 10.054639 7.418257 1.534720
LeftLeg -3.461454 -0.000000 0.000000
LeftFoot -10.958809 15.038333 -17.986639
LeftToeBase 9.506621 -0.000000 -0.000000
Spine -1.612234 -15.302927 -2.155556
RightShoulder 11.471909 -23.546993 -13.414807
RightArm 32.474617 -39.652872 53.656577
RightForeArm 11.835118 -0.000000 31.765472
RightHand 2.563621 -0.000000 3.757019
RightHandThumb1 -24.326973 -0.000000 -32.862282
LeftShoulder -4.776539 21.295326 12.850954
LeftArm 96.519483 -25.332615 -109.851564
LeftForeArm -67.426551 0.000000 136.222277
LeftHand -0.811036 -0.000000 -30.492115
LeftHandThumb1 -26.253704 0.000000 33.147579
Head 0.963921 30.514879 3.238924
1315
root 2.214732 37.005355 3.205693 -1.713975 -9.788155 1.521936
RightUpLeg 8.762870 -0.459773 -3.809939
RightLeg -4.827221 -0.000000 0.000000
RightFoot -11.955477 -13.733405 15.216682
RightToeBase 14.749402 -0.000000 -0.000000
LeftUpLeg 10.087591 7.464292 1.540119
LeftLeg -3.485080 -0.000000 0.000000
LeftFoot -10.886735 15.002954 -17.922704
LeftToeBase 9.365308 -0.000000 -0.000000
Spine -1.602431 -15.388847 -2.145325
RightShoulder 11.460660 -23.547707 -13.437468
RightArm 32.293006 -39.344258 53.812687
RightForeArm 11.820314 0.000000 31.925907
RightHand 2.576021 -0.000000 3.785896
RightHandThumb1 -24.326973 -0.000000 -32.862282
LeftShoulder -4.674165 21.085951 12.980153
LeftArm 96.542239 -25.814052 -110.034458
LeftForeArm -66.982275 -0.000000 134.769732
LeftHand -0.933848 -0.000000 -29.680229
LeftHandThumb1 -26.253704 0.000000 33.147579
Head 1.112384 30.647714 3.103333
